{"title":"Machined Reborn-AC3-5,1-DVDRip[Eng]2009","uid":5179958,"size":1463474998,"categoryP":"video","categoryS":"movies","magnet":"?xt=urn:btih:122134aafa5a46e0367b5cbfd474235fe5c28216&amp;dn=Machined+Reborn-AC3-5%2C1-DVDRip%5BEng%5D2009&amp;tr=udp%3A%2F%2Ftracker.openbittorrent.com%3A80&amp;tr=udp%3A%2F%2Fopen.demonii.com%3A1337&amp;tr=udp%3A%2F%2Ftracker.coppersurfer.tk%3A6969&amp;tr=udp%3A%2F%2Fexodus.desync.com%3A6969","seeders":0,"leechers":1,"uploader":"FatFreddy31","files":-1,"time":1259183836,"description":" &lt;a href=&quot;http://www.imdb.com/title/tt1486799/&quot; rel=&quot;nofollow&quot; target=&quot;_NEW&quot;&gt;http://www.imdb.com/title/tt1486799/&lt;/a&gt;\n\nAka Reborn.\n\nUser Rating:3.5/10 - 30 votes\n\nHorror\n\nDirector:Craig McMahon\n\nCast:Kathleen Benner/Russell Clay/Chris Cox/Jimmy Flowers, and others.\n\nPlot:\nWhen a property in the Sonoran Desert, AZ fell into default foreclosure and went up for public auction, an eager young newlywed couple jumped at the opportunity to purchase. Little did they know it used to be a torture ground owned by the serial killer &quot;Motorman DanÃƒÂ¶ whose crimes became the most puzzling in U.S.history. Now, their honeymoon phase has come to a horrifying halt, as the Motorman rises for one more round of terror.... \n\nInfo:\n\nGeneral\nComplete name                    : Machined Reborn-AC3-5,1-DVDRip[Eng]2009.avi\nFormat                           : AVI\nFormat/Info                      : Audio Video Interleave\nFile size                        : 1.36 GiB\nDuration                         : 1h 27mn\nOverall bit rate                 : 2 221 Kbps\nWriting application              : VirtualDubMod 1.5.4.1 (build 2178/release)\nWriting library                  : VirtualDubMod build 2178/release\n\nVideo\nID                               : 0\nFormat                           : MPEG-4 Visual\nFormat profile                   : Simple@L3\nFormat settings, BVOP            : No\nFormat settings, QPel            : No\nFormat settings, GMC             : No warppoints\nFormat settings, Matrix          : Default (H.263)\nCodec ID                         : XVID\nCodec ID/Hint                    : XviD\nDuration                         : 1h 27mn\nBit rate                         : 1 764 Kbps\nWidth                            : 640 pixels\nHeight                           : 352 pixels\nDisplay aspect ratio             : 16:9\nFrame rate                       : 23.976 fps\nResolution                       : 24 bits\nColorimetry                      : 4:2:0\nScan type                        : Progressive\nBits/(Pixel*Frame)               : 0.327\nStream size                      : 1.08 GiB (79%)\nWriting library                  : XviD 1.1.2 (UTC 2006-11-01)\n\nAudio\nID                               : 1\nFormat                           : AC-3\nFormat/Info                      : Audio Coding 3\nCodec ID                         : 2000\nDuration                         : 1h 27mn\nBit rate mode                    : Constant\nBit rate                         : 448 Kbps\nChannel(s)                       : 6 channels\nChannel positions                : Front: L C R, Surround: L R, LFE\nSampling rate                    : 48.0 KHz\nStream size                      : 281 MiB (20%)\nAlignment                        : Split accross interleaves\nInterleave, duration             : 42 ms (1.00 video frame)\nInterleave, preload duration     : 500 ms\n\nEnjoy...","torrent":{"xt":"urn:btih:122134aafa5a46e0367b5cbfd474235fe5c28216","amp;dn":"Machined+Reborn-AC3-5%2C1-DVDRip%5BEng%5D2009","amp;tr":["udp%3A%2F%2Ftracker.openbittorrent.com%3A80","udp%3A%2F%2Fopen.demonii.com%3A1337","udp%3A%2F%2Ftracker.coppersurfer.tk%3A6969","udp%3A%2F%2Fexodus.desync.com%3A6969"],"infoHash":"122134aafa5a46e0367b5cbfd474235fe5c28216","infoHashBuffer":{"type":"Buffer","data":[18,33,52,170,250,90,70,224,54,123,92,191,212,116,35,95,229,194,130,22]},"announce":[],"urlList":[]}}